<svg xmlns="http://www.w3.org/2000/svg" fill="none" viewBox="0 0 48 48"><path fill-opacity=".01" fill="#fff" d="M0 0h48v48H0z"/><path stroke-linejoin="round" stroke-width="4" stroke="#333" d="M6 9a3 3 0 0 1 3-3h25.281L42 13.207V39a3 3 0 0 1-3 3H9a3 3 0 0 1-3-3V9Z" data-follow-stroke="#333"/><path d="M24.008 6 24 13.385c0 .34-.448.615-1 .615h-8c-.552 0-1-.275-1-.615V6" clip-rule="evenodd"/><path stroke-linejoin="round" stroke-width="4" stroke="#333" d="M24.008 6 24 13.385c0 .34-.448.615-1 .615h-8c-.552 0-1-.275-1-.615V6h10.008Z" data-follow-stroke="#333"/><path stroke-linejoin="round" stroke-linecap="round" stroke-width="4" stroke="#333" d="M9 6h25.281M14 26h20M14 34h10.008" data-follow-stroke="#333"/></svg>